<svg width="100px" height="100px" xmlns="http://www.w3.org/2000/svg" viewBox="-205 207 100 100"><path d="M-174.8 282c-13.8 0-25-11.2-25-25s11.2-25 25-25c13.4 0 67.5 10.5 68.2 23.7-.7-14.2-55.6-25.5-70-25.5-14.8 0-26.8 12-26.8 26.8s12 26.8 26.8 26.8c14.4 0 69.3-11.3 70-25.5-.7 13.2-54.8 23.7-68.2 23.7z"/><path d="M-170.8 278c-11.6 0-21-9.4-21-21s9.4-21 21-21c11.3 0 63.6 8.8 64.2 19.9-.6-12.3-53.9-22.1-66.4-22.1-12.8 0-23.2 10.4-23.2 23.2 0 12.8 10.4 23.2 23.2 23.2 12.5 0 65.8-9.8 66.4-22.1-.6 11.1-52.9 19.9-64.2 19.9z"/><path d="M-166.5 273.8c-9.3 0-16.8-7.5-16.8-16.8s7.5-16.8 16.8-16.8c9 0 59.5 7 59.9 15.9-.5-10.1-51.9-18.1-62.1-18.1-10.5 0-18.9 8.5-18.9 18.9 0 10.5 8.5 18.9 18.9 18.9 10.2 0 61.6-8 62.1-18.1-.4 9-51 16.1-59.9 16.1z"/><path d="M-164.3 242.4c-8.1 0-14.6 6.5-14.6 14.6s6.5 14.6 14.6 14.6 57.8-6.5 57.8-14.6-49.8-14.6-57.8-14.6zm2.5 26.7c-6.7 0-12.1-5.4-12.1-12.1s5.4-12.1 12.1-12.1c6.7 0 55.2 5.4 55.2 12.1s-48.6 12.1-55.2 12.1z"/><path d="M-159.5 247.2c-5.4 0-9.8 4.4-9.8 9.8s4.4 9.8 9.8 9.8 53-4.4 53-9.8c-.1-5.4-47.6-9.8-53-9.8zm2.3 17.2c-4.1 0-7.4-3.3-7.4-7.4 0-4.1 3.3-7.4 7.4-7.4s50.6 3.3 50.6 7.4c0 4.1-46.5 7.4-50.6 7.4z"/><path d="M-152.7 260c-1.7 0-3-1.3-3-3s1.3-3 3-3c1.5 0 46 1.2 46.2 2.7-.2-2.8-45.7-5.1-48.6-5.1-3 0-5.4 2.4-5.4 5.4s2.4 5.4 5.4 5.4c2.9 0 48.4-2.2 48.6-5.1-.3 1.5-44.7 2.7-46.2 2.7z"/></svg>
