<svg version="1.0" width="100" height="100" viewBox="0 0 105.8 220" xmlns="http://www.w3.org/2000/svg"><path d="M50.5 112.002H23.833c-.953 5.674-5.886 9.997-11.833 9.999-6.629-.002-11.998-5.373-12-12 .002-6.629 5.372-11.999 12-12 5.948.002 10.882 4.325 11.834 10.001H50.5V23.834c-5.675-.953-9.998-5.888-10-11.833C40.502 5.371 45.873.002 52.501 0c6.627.002 11.999 5.372 12 12.001-.002 5.946-4.325 10.881-10 11.834v84.167h27.472c.954-5.676 5.888-9.999 11.835-10.001 6.628.002 11.999 5.372 12.001 12.001-.002 6.627-5.373 11.999-12.001 11.999-5.946-.001-10.881-4.324-11.835-9.999H54.501v84.167c5.675.952 9.998 5.888 9.998 11.835 0 6.627-5.371 11.998-11.998 12-6.629-.002-12-5.373-12-12 0-5.947 4.323-10.883 9.999-11.835zM52.5 20a8.008 8.008 0 0 0 7.999-7.999 8.008 8.008 0 0 0-7.999-8 8.01 8.01 0 0 0-8 8 8.01 8.01 0 0 0 8 7.999zm49.308 90.002a8.011 8.011 0 0 0-8-8 8.008 8.008 0 0 0-7.999 8 8.013 8.013 0 0 0 7.999 8 8.012 8.012 0 0 0 8-8zM20 110.001a8.01 8.01 0 0 0-8-8 8.012 8.012 0 0 0-8 8 8.012 8.012 0 0 0 8 8.001 8.012 8.012 0 0 0 8-8.001zm32.501 106.002a8.01 8.01 0 0 0 7.999-7.999 8.008 8.008 0 0 0-7.999-8 8.01 8.01 0 0 0-8.001 8 8.012 8.012 0 0 0 8.001 7.999z"/></svg>