<svg width="50px" height="50px" xmlns="http://www.w3.org/2000/svg" viewBox="-230 232 50 50"><path d="M-181.9 279.9c-10-3.9-16.7-14-26.2-19.1-1-.5-2.1-.9-3.1-1.2-.9-.4-1.7-.7-2.6-.9-2.6-.8-5.3-1.2-8.1-.9-1 .2-2.1.5-3.1 1-1.3.9-2.2 1.4-2.3 1.3-.2-.2.3-1 1.4-2.2.9-.7 1.6-1 2.6-1.5 3.3-.6 6.2 0 9.2.9 1 .3 1.9.7 2.9 1 .9.4 1.8.7 2.6 1.1 2.9 1.3 9.8 5.9 12.7 6.9-.7-3.7-6.1-10.2-7.2-13.7-.4-1-.8-2-1.1-3-.4-1.1-.8-2.1-1.1-3.2-.6-2.1-.9-4.3-.3-6.7.2-.9.5-1.7.9-2.5s.9-1.6 1.6-2.3c1.3-1 2.1-1.5 2.2-1.4s-.3 1-1.3 2.3c-.7 1-1.1 2-1.5 3-.3 1-.5 2.1-.6 3.1 0 1.2.1 2.3.4 3.4.2 1.1.5 2.2.9 3.3.3 1.1.7 2.1 1.1 3.1 4.8 9.7 12.4 17.7 19 26.3.5.9.9 1.5 1 1.9z"/></svg>
